<?xml version="1.0" encoding="utf-8"?>
<!-- Generator: Adobe Illustrator 16.0.0, SVG Export Plug-In . SVG Version: 6.00 Build 0)  -->
<!DOCTYPE svg PUBLIC "-//W3C//DTD SVG 1.1//EN" "http://www.w3.org/Graphics/SVG/1.1/DTD/svg11.dtd">
<svg version="1.1" id="Layer_1" xmlns="http://www.w3.org/2000/svg" xmlns:xlink="http://www.w3.org/1999/xlink" x="0px" y="0px"
	 width="24px" height="24px" viewBox="0 0 24 24" enable-background="new 0 0 24 24" xml:space="preserve">
<g>
	<rect fill="none" width="24" height="24"/>
	<path opacity="0.3" fill="#AAAAAA" enable-background="new" d="M2.561,10.682l2.122-2.122c0.585-0.586,1.535-0.586,2.121,0l2.122,2.122
		c0.585,0.585,0.585,1.536,0,2.121l-2.122,2.122c-0.586,0.585-1.536,0.585-2.121,0l-2.122-2.122
		C1.975,12.218,1.975,11.268,2.561,10.682z M14.561,10.682l2.121-2.122c0.586-0.586,1.535-0.586,2.121,0l2.122,2.122
		c0.585,0.585,0.585,1.536,0,2.121l-2.122,2.122c-0.586,0.585-1.535,0.585-2.121,0l-2.121-2.122
		C13.975,12.218,13.975,11.268,14.561,10.682z"/>
	<path fill="#5D78FF" opacity="0.9" d="M8.561,16.682l2.122-2.121c0.585-0.586,1.535-0.586,2.121,0l2.122,2.121c0.585,0.586,0.585,1.536,0,2.121
		l-2.122,2.122c-0.585,0.585-1.535,0.585-2.121,0l-2.122-2.122C7.975,18.218,7.975,17.268,8.561,16.682z M8.561,4.682l2.122-2.122
		c0.585-0.586,1.535-0.586,2.121,0l2.122,2.122c0.585,0.585,0.585,1.536,0,2.121l-2.122,2.122c-0.585,0.585-1.535,0.585-2.121,0
		L8.561,6.803C7.975,6.218,7.975,5.268,8.561,4.682z"/>
</g>
</svg>
