<?xml version="1.0" encoding="utf-8"?>
<!-- Generator: Adobe Illustrator 16.0.0, SVG Export Plug-In . SVG Version: 6.00 Build 0)  -->
<!DOCTYPE svg PUBLIC "-//W3C//DTD SVG 1.1//EN" "http://www.w3.org/Graphics/SVG/1.1/DTD/svg11.dtd">
<svg version="1.1" id="Layer_1" xmlns="http://www.w3.org/2000/svg" xmlns:xlink="http://www.w3.org/1999/xlink" x="0px" y="0px"
	 width="24px" height="24px" viewBox="0 0 24 24" enable-background="new 0 0 24 24" xml:space="preserve">
<g>
	<rect fill="none" width="24" height="24"/>
	<path opacity="0.3" fill="#5D78FF" enable-background="new    " d="M14.5,4L14.5,4C15.328,4,16,4.671,16,5.5v13
		c0,0.828-0.672,1.5-1.5,1.5l0,0c-0.828,0-1.5-0.672-1.5-1.5v-13C13,4.671,13.672,4,14.5,4z"/>
	<path fill="#5D78FF" d="M9.5,9L9.5,9c0.829,0,1.5,0.671,1.5,1.5v8c0,0.828-0.671,1.5-1.5,1.5l0,0C8.671,20,8,19.328,8,18.5v-8
		C8,9.671,8.671,9,9.5,9z"/>
	<path fill="#5D78FF" d="M19.5,11L19.5,11c0.828,0,1.5,0.671,1.5,1.5v6c0,0.828-0.672,1.5-1.5,1.5l0,0c-0.828,0-1.5-0.672-1.5-1.5
		v-6C18,11.671,18.672,11,19.5,11z"/>
	<path fill="#5D78FF" d="M4.5,13L4.5,13C5.329,13,6,13.672,6,14.5v4C6,19.328,5.329,20,4.5,20l0,0C3.671,20,3,19.328,3,18.5v-4
		C3,13.672,3.671,13,4.5,13z"/>
</g>
</svg>
